<svg xmlns="http://www.w3.org/2000/svg" viewBox="0 0 512 512" role="img" aria-labelledby="title">
  <title id="title">Party Night</title>
  <defs>
    <radialGradient id="bg" cx="48%" cy="40%" r="72%">
      <stop offset="0" stop-color="#34246b"/>
      <stop offset="0.55" stop-color="#10142e"/>
      <stop offset="1" stop-color="#050713"/>
    </radialGradient>
    <linearGradient id="neon" x1="0" y1="0" x2="1" y2="1">
      <stop stop-color="#ff40d8"/>
      <stop offset="0.52" stop-color="#985cff"/>
      <stop offset="1" stop-color="#00d1ff"/>
    </linearGradient>
    <filter id="glow" x="-60%" y="-60%" width="220%" height="220%">
      <feGaussianBlur stdDeviation="12" result="blur"/>
      <feMerge><feMergeNode in="blur"/><feMergeNode in="SourceGraphic"/></feMerge>
    </filter>
  </defs>
  <rect width="512" height="512" rx="112" fill="url(#bg)"/>
  <circle cx="256" cy="200" r="126" fill="#11143c" stroke="url(#neon)" stroke-width="8" filter="url(#glow)"/>
  <path d="M145 171h222M139 211h234M156 251h200M188 93c36 58 51 111 51 216M324 93c-36 58-51 111-51 216" fill="none" stroke="url(#neon)" stroke-width="5" opacity=".72"/>
  <path d="M334 91l26-34 29 30 35-25-7 70-76 2z" fill="none" stroke="#ff40d8" stroke-width="9" stroke-linejoin="round" filter="url(#glow)"/>
  <path d="M122 349c44-22 80-20 110 8 25-40 66-40 94-5 25-19 50-20 75-5v96H112z" fill="#050713" opacity=".92"/>
  <text x="256" y="404" text-anchor="middle" fill="url(#neon)" font-family="Arial Rounded MT Bold,Arial,sans-serif" font-size="74" font-style="italic" font-weight="700" filter="url(#glow)">PN</text>
</svg>
